<?xml version="1.0" encoding="UTF-8"?>
<svg width="752pt" height="752pt" version="1.1" viewBox="0 0 752 752" xmlns="http://www.w3.org/2000/svg">
 <path d="m498 483.17-6.4883-157.09c-0.32812-7.8477-6.9531-13.941-14.801-13.617-7.8438 0.32812-13.941 6.9531-13.613 14.801l4.7344 120.76-189.57-189.86c-5.5977-5.2188-14.32-5.0625-19.73 0.34766-5.4102 5.4102-5.5664 14.133-0.34766 19.73l189.81 189.86-120.76-4.7344c-7.8477-0.32812-14.473 5.7656-14.801 13.613-0.32422 7.8477 5.7695 14.473 13.617 14.801l157.13 6.4414h0.57031c3.8672 0 7.5703-1.5742 10.25-4.3633 2.6836-2.7891 4.1094-6.5469 3.957-10.414z"/>
</svg>
