<?xml version="1.0" encoding="UTF-8"?>
<svg width="752pt" height="752pt" version="1.1" viewBox="0 0 752 752" xmlns="http://www.w3.org/2000/svg">
 <g>
  <path d="m546.49 228.1c0-12.559-4.9922-24.605-13.871-33.488-8.8828-8.8789-20.93-13.871-33.488-13.871h-246.26c-12.562 0-24.605 4.9922-33.488 13.871-8.8828 8.8828-13.871 20.93-13.871 33.488v295.8c0 12.559 4.9883 24.605 13.871 33.484 8.8828 8.8828 20.926 13.871 33.488 13.871h246.26c12.559 0 24.605-4.9883 33.488-13.871 8.8789-8.8789 13.871-20.926 13.871-33.484zm-18.945 295.8c0 7.5352-2.9922 14.762-8.3203 20.09-5.332 5.3281-12.559 8.3242-20.094 8.3242h-246.26c-7.5352 0-14.766-2.9961-20.094-8.3242-5.3281-5.3281-8.3203-12.555-8.3203-20.09v-295.8c0-7.5352 2.9922-14.762 8.3203-20.094 5.3281-5.3281 12.559-8.3203 20.094-8.3203h246.26c7.5352 0 14.762 2.9922 20.094 8.3203 5.3281 5.332 8.3203 12.559 8.3203 20.094z"/>
  <path d="m287.68 368.9h-18.707c-5.2305 0-9.4727 4.2383-9.4727 9.4727 0 5.2305 4.2422 9.4688 9.4727 9.4688h18.707c5.2305 0 9.4688-4.2383 9.4688-9.4688 0-5.2344-4.2383-9.4727-9.4688-9.4727z"/>
  <path d="m483.03 368.9h-153.02c-5.2305 0-9.4688 4.2383-9.4688 9.4727 0 5.2305 4.2383 9.4688 9.4688 9.4688h153.02c5.2305 0 9.4727-4.2383 9.4727-9.4688 0-5.2344-4.2422-9.4727-9.4727-9.4727z"/>
  <path d="m287.68 283.65h-18.707c-5.2305 0-9.4727 4.2422-9.4727 9.4727s4.2422 9.4727 9.4727 9.4727h18.707c5.2305 0 9.4688-4.2422 9.4688-9.4727s-4.2383-9.4727-9.4688-9.4727z"/>
  <path d="m483.03 283.65h-153.02c-5.2305 0-9.4688 4.2422-9.4688 9.4727s4.2383 9.4727 9.4688 9.4727h153.02c5.2305 0 9.4727-4.2422 9.4727-9.4727s-4.2422-9.4727-9.4727-9.4727z"/>
  <path d="m287.68 454.14h-18.707c-5.2305 0-9.4727 4.2422-9.4727 9.4727s4.2422 9.4727 9.4727 9.4727h18.707c5.2305 0 9.4688-4.2422 9.4688-9.4727s-4.2383-9.4727-9.4688-9.4727z"/>
  <path d="m483.03 454.14h-153.02c-5.2305 0-9.4688 4.2422-9.4688 9.4727s4.2383 9.4727 9.4688 9.4727h153.02c5.2305 0 9.4727-4.2422 9.4727-9.4727s-4.2422-9.4727-9.4727-9.4727z"/>
 </g>
</svg>
