<?xml version="1.0" encoding="UTF-8"?>
<svg width="752pt" height="752pt" version="1.1" viewBox="0 0 752 752" xmlns="http://www.w3.org/2000/svg">
 <path d="m506.43 245.67c-9.375-9.3594-22.082-14.613-35.328-14.613-13.25 0-25.953 5.2539-35.332 14.613l-178.82 178.82c-1.332 1.332-2.082 3.1367-2.082 5.0195-0.015625 0.25391-0.015625 0.50391 0 0.75781l-23.68 81.598c-0.70703 2.4688-0.027344 5.1289 1.7773 6.957 1.8086 1.8242 4.4609 2.5352 6.9375 1.8516l84.535-23.68h0.89844c0.76953-0.32812 1.4766-0.79297 2.082-1.3711l179.02-179.25c9.3711-9.3711 14.633-22.078 14.633-35.332 0-13.25-5.2617-25.957-14.633-35.328zm-81.031 30.453 50.578 50.625-153.39 153.44-50.77-50.672zm-159.5 167.36 43.098 43.098-60.574 16.949zm230.49-137.34-10.371 10.371-50.578-50.438 10.371-10.371c9.043-9.0352 22.219-12.559 34.566-9.2422 12.344 3.3125 21.984 12.961 25.289 25.312 3.3008 12.348-0.23437 25.52-9.2773 34.555z"/>
</svg>
