<?xml version="1.0" encoding="UTF-8"?>
<svg width="752pt" height="752pt" version="1.1" viewBox="0 0 752 752" xmlns="http://www.w3.org/2000/svg">
 <path d="m423.33 164.54h-94.664c-5.8672 0.007813-11.496 2.3398-15.645 6.4922-4.1523 4.1484-6.4883 9.7773-6.4922 15.648v27.141h-70.051v-0.003906c-6.9766 0.007812-13.664 2.7812-18.598 7.7148-4.9297 4.9336-7.707 11.621-7.7148 18.598v49.004-0.003906c0 1.7461 0.69531 3.418 1.9258 4.6523 1.2344 1.2344 2.9102 1.9258 4.6523 1.9258h15.934l28.285 250.89c1.2617 11.246 6.6211 21.633 15.059 29.172 8.4375 7.543 19.359 11.711 30.676 11.707h138.61c11.32 0.007812 22.25-4.1602 30.691-11.703s13.805-17.934 15.062-29.188l28.285-250.89h15.934c1.7422 0 3.418-0.69141 4.6484-1.9258 1.2344-1.2305 1.9258-2.9062 1.9258-4.6484v-49.004c-0.007812-6.9766-2.7812-13.664-7.7109-18.594-4.9336-4.9336-11.621-7.707-18.598-7.7148h-70.07v-27.133c-0.007812-5.8711-2.3438-11.496-6.4922-15.645-4.1523-4.1523-9.7773-6.4844-15.648-6.4922zm-103.65 22.137c0.007812-4.9609 4.0273-8.9766 8.9844-8.9844h94.664c4.9609 0.007812 8.9805 4.0273 8.9844 8.9883v27.141l-112.63-0.003906zm158.3 358.44c-0.90234 8.0352-4.7344 15.457-10.762 20.844-6.0312 5.3906-13.836 8.3633-21.922 8.3594h-138.61c-8.0898 0.003906-15.891-2.9688-21.922-8.3594-6.0312-5.3867-9.8633-12.809-10.762-20.844l-28.113-249.42h260.2zm50.707-304.99v42.426l-305.39-0.003906v-42.426 0.003906c0.007812-7.2617 5.8945-13.148 13.152-13.156h279.08c7.2617 0.007812 13.148 5.8945 13.156 13.156z"/>
</svg>
